<svg xmlns="http://www.w3.org/2000/svg" viewBox="0 0 260.53 260.53"><defs><style>.cls-1{fill:#44c68b;stroke:#44c68b;stroke-miterlimit:10;}</style></defs><g id="Calque_2" data-name="Calque 2"><g id="Layer_1" data-name="Layer 1"><path class="cls-1" d="M180.55,260H80A79.57,79.57,0,0,1,.5,180.55V80A79.56,79.56,0,0,1,80,.5H180.55A79.57,79.57,0,0,1,260,80V180.55A79.58,79.58,0,0,1,180.55,260ZM80,10.14A69.92,69.92,0,0,0,10.14,80V180.55A69.92,69.92,0,0,0,80,250.39H180.55a69.92,69.92,0,0,0,69.84-69.84V80a69.92,69.92,0,0,0-69.84-69.84Z"/><rect class="cls-1" x="83.91" y="111.96" width="18.96" height="65"/><path class="cls-1" d="M93.39,83.57A10.39,10.39,0,1,0,103.77,94,10.39,10.39,0,0,0,93.39,83.57Z"/><path class="cls-1" d="M162,111.73c-17.67-5-27,6.93-27,6.93h0l-2.32-8.57H115.31V177h20.34V137.29a10.72,10.72,0,0,1,10.72-10.73h0a10.72,10.72,0,0,1,10.73,10.73V177h20.33V143.52S179.68,116.71,162,111.73Z"/></g></g></svg>