<svg xmlns="http://www.w3.org/2000/svg" viewBox="0 0 260.53 260.53"><defs><style>.cls-1{fill:#44c68b;stroke:#44c68b;stroke-miterlimit:10;}</style></defs><g id="Calque_2" data-name="Calque 2"><g id="Layer_1" data-name="Layer 1"><path class="cls-1" d="M180.55,260H80A79.57,79.57,0,0,1,.5,180.55V80A79.56,79.56,0,0,1,80,.5H180.55A79.57,79.57,0,0,1,260,80V180.55A79.58,79.58,0,0,1,180.55,260ZM80,10.14A69.92,69.92,0,0,0,10.14,80V180.55A69.92,69.92,0,0,0,80,250.39H180.55a69.92,69.92,0,0,0,69.84-69.84V80a69.92,69.92,0,0,0-69.84-69.84Z"/><path class="cls-1" d="M161.87,146.21l-13.18-6.06a3.59,3.59,0,0,0-3.59.35l-5.19,3.72a5.07,5.07,0,0,1-5.35.37c-2.13-1.14-17.46-16.51-18.6-18.64a5.07,5.07,0,0,1,.37-5.35l3.72-5.19a3.59,3.59,0,0,0,.35-3.59l-6.06-13.18a4.35,4.35,0,0,0-4-2.53H106a4.19,4.19,0,0,0-1.61.3C96.26,99.91,96.78,110,96.78,110c0,15,12.39,28.79,18.33,34.56,5.14,5.47,19.64,19.21,35.4,19.21,0,0,10.09.52,13.59-7.64a4.19,4.19,0,0,0,.3-1.61v-4.36A4.35,4.35,0,0,0,161.87,146.21Z"/><path class="cls-1" d="M55.11,205.41l13.08-40.82A73.36,73.36,0,1,1,96,192.35ZM97.66,178l2.58,1.6a60.24,60.24,0,1,0-19.33-19.32l1.61,2.58-7.14,22.26Z"/></g></g></svg>