<svg xmlns="http://www.w3.org/2000/svg" viewBox="0 0 260.53 260.53"><defs><style>.cls-1{fill:#44c68b;stroke:#44c68b;stroke-miterlimit:10;}</style></defs><g id="Calque_2" data-name="Calque 2"><g id="Layer_1" data-name="Layer 1"><path class="cls-1" d="M180.55,260H80A79.57,79.57,0,0,1,.5,180.55V80A79.56,79.56,0,0,1,80,.5H180.55A79.57,79.57,0,0,1,260,80V180.55A79.58,79.58,0,0,1,180.55,260ZM80,10.14A69.92,69.92,0,0,0,10.14,80V180.55A69.92,69.92,0,0,0,80,250.39H180.55a69.92,69.92,0,0,0,69.84-69.84V80a69.92,69.92,0,0,0-69.84-69.84Z"/><path class="cls-1" d="M156.94,67.33H103.59a36.29,36.29,0,0,0-36.26,36.26v53.35a36.3,36.3,0,0,0,36.26,36.26h53.35a36.31,36.31,0,0,0,36.26-36.26V103.59A36.3,36.3,0,0,0,156.94,67.33Zm23.41,89.61a23.44,23.44,0,0,1-23.41,23.42H103.59a23.45,23.45,0,0,1-23.42-23.42V103.59a23.45,23.45,0,0,1,23.42-23.42h53.35a23.44,23.44,0,0,1,23.41,23.42Z"/><path class="cls-1" d="M130.26,101a29.23,29.23,0,1,0,29.23,29.23A29.27,29.27,0,0,0,130.26,101Zm0,45a15.79,15.79,0,1,1,15.79-15.79A15.81,15.81,0,0,1,130.26,146.05Z"/><path class="cls-1" d="M163,88.36A8.67,8.67,0,1,0,171.69,97,8.67,8.67,0,0,0,163,88.36Z"/></g></g></svg>