<svg xmlns="http://www.w3.org/2000/svg" viewBox="0 0 260.53 260.53"><defs><style>.cls-1{fill:#44c68b;stroke:#44c68b;stroke-miterlimit:10;}</style></defs><g id="Calque_2" data-name="Calque 2"><g id="Layer_1" data-name="Layer 1"><path class="cls-1" d="M180.55,260H80A79.57,79.57,0,0,1,.5,180.55V80A79.56,79.56,0,0,1,80,.5H180.55A79.57,79.57,0,0,1,260,80V180.55A79.58,79.58,0,0,1,180.55,260ZM80,10.14A69.92,69.92,0,0,0,10.14,80V180.55A69.92,69.92,0,0,0,80,250.39H180.55a69.92,69.92,0,0,0,69.84-69.84V80a69.92,69.92,0,0,0-69.84-69.84Z"/><path class="cls-1" d="M187.22,89.81s8.53-6.43,11.32-15.37c0,0-11.44,5.37-18.31,5.44a30.2,30.2,0,0,0-52.32,28.26l-.23,0C83,105.05,64.78,76.35,64.78,76.35s-11,22.73,6.89,40.63a18,18,0,0,1-10.24-2.61s-3.74,19.38,20.68,29.82c0,0-6.8,1.81-10.67,1.16,0,0,5.73,18,27.63,20.64,0,0-9.13,11.56-41,13.79,0,0,52.74,34.48,104-12.11,0,0,22.36-18.92,25.16-57l15.24-24.36Z"/></g></g></svg>