<svg xmlns="http://www.w3.org/2000/svg" viewBox="0 0 260.53 260.53"><defs><style>.cls-1{fill:#44c68b;stroke:#44c68b;stroke-miterlimit:10;}</style></defs><g id="Calque_2" data-name="Calque 2"><g id="Layer_1" data-name="Layer 1"><path class="cls-1" d="M180.55,260H80A79.57,79.57,0,0,1,.5,180.55V80A79.56,79.56,0,0,1,80,.5H180.55A79.57,79.57,0,0,1,260,80V180.55A79.58,79.58,0,0,1,180.55,260ZM80,10.14A69.92,69.92,0,0,0,10.14,80V180.55A69.92,69.92,0,0,0,80,250.39H180.55a69.92,69.92,0,0,0,69.84-69.84V80a69.92,69.92,0,0,0-69.84-69.84Z"/><path class="cls-1" d="M173.54,76.69H87a28.18,28.18,0,0,0-28.18,28.18v50.79A28.18,28.18,0,0,0,87,183.84h86.55a28.18,28.18,0,0,0,28.18-28.18V104.87A28.18,28.18,0,0,0,173.54,76.69Zm-60.88,77.07v-47a4.78,4.78,0,0,1,7.24-4.11l39.27,23.5a4.78,4.78,0,0,1,0,8.21l-39.27,23.5A4.79,4.79,0,0,1,112.66,153.76Z"/></g></g></svg>