<svg xmlns="http://www.w3.org/2000/svg" viewBox="0 0 260.53 260.53"><defs><style>.cls-1{fill:#44c68b;stroke:#44c68b;stroke-miterlimit:10;}</style></defs><g id="Calque_2" data-name="Calque 2"><g id="Layer_1" data-name="Layer 1"><path class="cls-1" d="M180.55.5H80A79.56,79.56,0,0,0,.5,80V180.55A79.57,79.57,0,0,0,80,260H180.55A79.58,79.58,0,0,0,260,180.55V80A79.57,79.57,0,0,0,180.55.5Zm69.84,180.05a69.92,69.92,0,0,1-69.84,69.84H80a69.92,69.92,0,0,1-69.84-69.84V80A69.92,69.92,0,0,1,80,10.14H180.55A69.92,69.92,0,0,1,250.39,80Z"/><path class="cls-1" d="M180.55.5H80A79.56,79.56,0,0,0,.5,80V180.55A79.57,79.57,0,0,0,80,260H180.55A79.58,79.58,0,0,0,260,180.55V80A79.57,79.57,0,0,0,180.55.5Zm69.84,180.05a69.92,69.92,0,0,1-69.84,69.84H80a69.92,69.92,0,0,1-69.84-69.84V80A69.92,69.92,0,0,1,80,10.14H180.55A69.92,69.92,0,0,1,250.39,80Z"/><path class="cls-1" d="M173.53,66.88,76.69,122.79a10.31,10.31,0,0,0,1.76,18.66l25.67,8.94,58.1-45.53-40.3,51.73v30a3.6,3.6,0,0,0,6.08,2.61l15.14-14.45,19.25,17.55a10.31,10.31,0,0,0,17.21-6.74L189,76.69A10.31,10.31,0,0,0,173.53,66.88Z"/></g></g></svg>